<?xml version="1.0" standalone="no"?>
<!DOCTYPE svg PUBLIC "-//W3C//DTD SVG 20010904//EN"
 "http://www.w3.org/TR/2001/REC-SVG-20010904/DTD/svg10.dtd">
<svg version="1.0" xmlns="http://www.w3.org/2000/svg"
 width="1100.000000pt" height="1100.000000pt" viewBox="0 0 1100.000000 1100.000000"
 preserveAspectRatio="xMidYMid meet">
<metadata>
Created by potrace 1.14, written by Peter Selinger 2001-2017
</metadata>
<g transform="translate(0.000000,1100.000000) scale(0.100000,-0.100000)"
fill="#000000" stroke="none">
<path d="M2900 8440 c0 -6 34 -388 75 -848 41 -460 133 -1496 205 -2302 72
-806 144 -1613 160 -1793 17 -180 30 -332 30 -337 0 -5 24 -15 53 -23 28 -9
252 -72 497 -141 245 -69 698 -197 1007 -284 l563 -159 327 92 c181 51 659
186 1063 299 404 114 735 208 736 209 1 1 32 337 68 747 37 410 82 918 101
1130 50 550 218 2443 260 2915 19 220 38 424 41 453 l6 52 -2596 0 c-1794 0
-2596 -3 -2596 -10z m4220 -1112 c0 -24 -12 -170 -27 -325 l-27 -283 -1244 0
-1244 0 7 -67 c3 -38 16 -187 29 -333 l22 -265 1188 -3 1188 -2 -6 -28 c-2
-15 -7 -43 -10 -62 -5 -28 -112 -1237 -158 -1777 l-11 -132 -51 -15 c-106 -30
-243 -68 -636 -177 -223 -61 -460 -126 -528 -145 l-123 -34 -127 36 c-248 68
-749 207 -922 254 -294 81 -290 79 -290 101 0 27 -68 905 -75 957 l-5 42 325
0 c253 0 325 -3 325 -12 0 -47 43 -494 49 -499 3 -4 119 -37 256 -74 138 -37
297 -80 355 -96 l105 -29 360 96 c198 54 362 99 364 101 5 4 80 758 81 809 l0
30 -1122 3 c-617 1 -1124 4 -1127 7 -5 5 -157 1683 -167 1844 l-7 115 1627 3
1626 3 0 -43z"/>
</g>
</svg>
